<svg width="32" height="32" viewBox="0 0 32 32" fill="none" xmlns="http://www.w3.org/2000/svg">
<circle cx="16" cy="16" r="16" fill="#10D4B0"/>
<path fill-rule="evenodd" clip-rule="evenodd" d="M13.7434 11.9158C13.7434 12.3764 13.37 12.7499 12.9093 12.7499C12.4487 12.7499 12.0752 12.3764 12.0752 11.9158C12.0752 11.4551 12.4487 11.0817 12.9093 11.0817C13.37 11.0817 13.7434 11.4551 13.7434 11.9158ZM12.9093 11.2842C12.8407 11.2842 12.7747 11.2951 12.7129 11.3153C12.7748 11.2951 12.8408 11.2842 12.9093 11.2842C13.2581 11.2842 13.5409 11.567 13.5409 11.9158C13.5409 12.1862 13.3709 12.417 13.1319 12.507C13.3709 12.417 13.5409 12.1862 13.5409 11.9158C13.5409 11.567 13.2581 11.2842 12.9093 11.2842ZM19.6381 11.9158C19.6381 12.3765 19.2647 12.7499 18.804 12.7499C18.3434 12.7499 17.9699 12.3765 17.9699 11.9158C17.9699 11.4551 18.3434 11.0817 18.804 11.0817C19.2647 11.0817 19.6381 11.4551 19.6381 11.9158ZM10.0028 16.1167C9.98553 16.0535 9.96871 15.99 9.95556 15.9258C9.91462 15.7203 9.71496 15.5867 9.50933 15.6273C9.14421 15.6995 9.20937 16.0687 9.21085 16.0761C9.21542 16.0985 9.22043 16.1208 9.22562 16.143C9.23529 16.1845 9.24983 16.2435 9.27011 16.3175C9.31065 16.4654 9.37424 16.674 9.4678 16.9231C9.65455 17.4201 9.96292 18.0844 10.4503 18.7506C11.4329 20.0936 13.1379 21.4325 15.9772 21.4325C18.8172 21.4325 20.5051 20.0929 21.4699 18.7477C21.9483 18.0808 22.2473 17.4159 22.427 16.9185C22.5171 16.6693 22.5777 16.4606 22.6161 16.3125C22.6354 16.2385 22.6491 16.1794 22.6582 16.138C22.708 15.9104 22.6251 15.6736 22.3673 15.6264C22.1254 15.582 21.9634 15.7592 21.916 15.9755C21.9089 16.008 21.8974 16.0576 21.8808 16.1216C21.8475 16.2499 21.7936 16.4359 21.7125 16.6604C21.5499 17.1104 21.2802 17.7087 20.8526 18.3049C20.0054 19.486 18.5325 20.6728 15.9772 20.6728C13.4214 20.6728 11.9292 19.4853 11.0635 18.302C10.6267 17.7051 10.3482 17.1061 10.179 16.6559C10.0946 16.4312 10.038 16.2451 10.0028 16.1167Z" fill="white"/>
<path fill-rule="evenodd" clip-rule="evenodd" d="M9.21074 16.0761C9.20926 16.0688 9.1441 15.6996 9.50923 15.6274C9.71485 15.5867 9.91451 15.7203 9.95546 15.9258C9.9686 15.99 9.98542 16.0536 10.0027 16.1167C10.0379 16.2451 10.0945 16.4313 10.1789 16.6559C10.3481 17.1062 10.6266 17.7051 11.0634 18.302C11.9291 19.4853 13.4212 20.6728 15.9771 20.6728C18.5324 20.6728 20.0053 19.486 20.8525 18.3049C21.2801 17.7087 21.5498 17.1104 21.7124 16.6604C21.7935 16.436 21.8474 16.2499 21.8807 16.1217C21.8973 16.0576 21.9088 16.0081 21.9159 15.9755C21.9632 15.7593 22.1253 15.582 22.3672 15.6264C22.625 15.6737 22.7079 15.9104 22.6581 16.138C22.649 16.1795 22.6353 16.2385 22.616 16.3126C22.5776 16.4606 22.517 16.6693 22.4269 16.9186C22.2472 17.416 21.9481 18.0808 21.4698 18.7477C20.505 20.093 18.8171 21.4325 15.9771 21.4325C13.1378 21.4325 11.4328 20.0937 10.4502 18.7506C9.96281 18.0844 9.65445 17.4202 9.4677 16.9231C9.37413 16.674 9.31054 16.4655 9.27001 16.3175C9.24973 16.2435 9.23518 16.1845 9.22551 16.1431C9.22032 16.1208 9.21531 16.0985 9.21074 16.0761ZM10.154 15.8857C10.0909 15.571 9.78503 15.3664 9.46994 15.4287C9.34358 15.4537 9.24197 15.5074 9.16567 15.5832C9.09052 15.6578 9.04956 15.744 9.02775 15.8205C8.98592 15.9671 9.00852 16.0978 9.01218 16.116L9.01218 16.116L9.0123 16.1166C9.01739 16.1415 9.02285 16.1658 9.02828 16.1891C9.03849 16.2329 9.05367 16.2944 9.07467 16.371C9.11664 16.5242 9.18209 16.7387 9.2781 16.9943C9.46954 17.5039 9.78585 18.1856 10.2868 18.8702C11.3005 20.2558 13.0621 21.6351 15.9771 21.6351C18.8931 21.6351 20.6382 20.2547 21.6344 18.8658C22.1262 18.18 22.4331 17.4974 22.6174 16.9874C22.7098 16.7316 22.7723 16.5168 22.8121 16.3635C22.832 16.2867 22.8463 16.2252 22.8559 16.1813C22.8883 16.0332 22.881 15.868 22.8092 15.7241C22.7338 15.5731 22.5948 15.4622 22.4037 15.4272C22.2212 15.3937 22.0586 15.4449 21.9367 15.5495C21.8198 15.6499 21.749 15.7908 21.7181 15.9322L21.7181 15.9322C21.7115 15.9624 21.7006 16.0094 21.6846 16.0708C21.6527 16.1938 21.6006 16.3737 21.5219 16.5916L21.7124 16.6604L21.5219 16.5916C21.3639 17.0289 21.102 17.6095 20.6879 18.1869C19.8722 19.3242 18.4565 20.4703 15.9771 20.4703C13.4968 20.4703 12.0613 19.3231 11.2268 18.1825C10.8036 17.604 10.533 17.0225 10.3685 16.5847C10.2865 16.3666 10.2318 16.1864 10.1981 16.0632C10.181 16.0008 10.1657 15.9428 10.154 15.8857Z" fill="white"/>
</svg>
